<svg viewBox="0 0 21 21" fill="none" xmlns="http://www.w3.org/2000/svg">
  <g clip-path="url(#clip0_5_445)">
    <path d="M9.50243 0.785196C9.83672 -0.0742331 10.9753 -0.0742321 11.3096 0.785199L13.2826 5.85771C13.4236 6.22002 13.7423 6.46758 14.1081 6.49894L19.2293 6.93797C20.097 7.01235 20.4488 8.17023 19.7877 8.77578L15.8859 12.3498C15.6072 12.605 15.4854 13.0057 15.5706 13.3873L16.7626 18.7311C16.9646 19.6365 16.0436 20.3522 15.3007 19.867L10.9161 17.0034C10.6029 16.7987 10.2091 16.7987 9.89591 17.0034L5.51136 19.867C4.76847 20.3522 3.84736 19.6365 4.04932 18.7311L5.24142 13.3873C5.32657 13.0057 5.20485 12.605 4.92617 12.3498L1.02426 8.77578C0.363172 8.17023 0.715012 7.01235 1.58271 6.93797L6.70401 6.49894C7.06981 6.46758 7.38847 6.22002 7.52939 5.85771L9.50243 0.785196Z" fill="#CF6F49"/>
  </g>
  <defs>
    <clipPath id="clip0_5_445">
      <rect width="19.4502" height="20" fill="white" transform="translate(0.680908 0.140625)"/>
    </clipPath>
  </defs>
</svg>
